<svg version="1.1" viewBox="16.98182 36.763 116.1988 26.5994" xmlns:xlink="http://www.w3.org/1999/xlink" xmlns="http://www.w3.org/2000/svg" style="max-height: 500px" width="116.1988" height="26.5994">
<g id="surface1">
<path d="M 53.316406 41.15625 C 52.890625 39.582031 51.652344 38.339844 50.074219 37.917969 C 47.199219 37.128906 35.691406 37.128906 35.691406 37.128906 C 35.691406 37.128906 24.183594 37.128906 21.304688 37.886719 C 19.761719 38.308594 18.488281 39.582031 18.066406 41.15625 C 17.308594 44.035156 17.308594 50 17.308594 50 C 17.308594 50 17.308594 55.996094 18.066406 58.84375 C 18.488281 60.417969 19.730469 61.660156 21.304688 62.082031 C 24.210938 62.871094 35.691406 62.871094 35.691406 62.871094 C 35.691406 62.871094 47.199219 62.871094 50.074219 62.113281 C 51.652344 61.691406 52.890625 60.449219 53.316406 58.875 C 54.074219 55.996094 54.074219 50.03125 54.074219 50.03125 C 54.074219 50.03125 54.105469 44.035156 53.316406 41.15625 Z M 53.316406 41.15625" style="stroke:none;fill-rule:nonzero;fill:rgb(100%,0%,0%);fill-opacity:1;"/>
<path d="M 32.027344 44.488281 L 32.027344 55.511719 L 41.597656 50 Z M 32.027344 44.488281" style="stroke:none;fill-rule:nonzero;fill:rgb(100%,100%,100%);fill-opacity:1;"/>
<path d="M 70.699219 60.570312 C 69.972656 60.085938 69.457031 59.328125 69.15625 58.269531 C 68.851562 57.238281 68.699219 55.84375 68.699219 54.148438 L 68.699219 51.816406 C 68.699219 50.089844 68.882812 48.699219 69.214844 47.636719 C 69.578125 46.578125 70.125 45.820312 70.851562 45.335938 C 71.609375 44.851562 72.578125 44.609375 73.789062 44.609375 C 74.96875 44.609375 75.9375 44.851562 76.664062 45.335938 C 77.390625 45.820312 77.90625 46.609375 78.242188 47.636719 C 78.574219 48.667969 78.753906 50.0625 78.753906 51.816406 L 78.753906 54.148438 C 78.753906 55.875 78.605469 57.238281 78.269531 58.296875 C 77.9375 59.328125 77.421875 60.113281 76.695312 60.601562 C 75.96875 61.085938 74.96875 61.328125 73.726562 61.328125 C 72.457031 61.296875 71.425781 61.054688 70.699219 60.570312 Z M 74.789062 58.027344 C 75 57.511719 75.089844 56.632812 75.089844 55.453125 L 75.089844 50.425781 C 75.089844 49.273438 75 48.425781 74.789062 47.878906 C 74.574219 47.335938 74.242188 47.09375 73.726562 47.09375 C 73.242188 47.09375 72.878906 47.363281 72.699219 47.878906 C 72.488281 48.425781 72.394531 49.273438 72.394531 50.425781 L 72.394531 55.453125 C 72.394531 56.632812 72.488281 57.511719 72.699219 58.027344 C 72.878906 58.539062 73.242188 58.8125 73.757812 58.8125 C 74.242188 58.8125 74.574219 58.570312 74.789062 58.027344 Z M 74.789062 58.027344" style="stroke:none;fill-rule:nonzero;fill:rgb(15.686275%,15.686275%,15.686275%);fill-opacity:1;"/>
<path d="M 126.605469 54.179688 L 126.605469 54.996094 C 126.605469 56.027344 126.636719 56.8125 126.695312 57.328125 C 126.757812 57.84375 126.878906 58.238281 127.089844 58.449219 C 127.269531 58.691406 127.574219 58.8125 128 58.8125 C 128.542969 58.8125 128.90625 58.601562 129.117188 58.175781 C 129.332031 57.753906 129.421875 57.054688 129.453125 56.058594 L 132.570312 56.238281 C 132.601562 56.390625 132.601562 56.570312 132.601562 56.8125 C 132.601562 58.296875 132.207031 59.417969 131.390625 60.144531 C 130.574219 60.871094 129.421875 61.234375 127.9375 61.234375 C 126.152344 61.234375 124.910156 60.660156 124.183594 59.539062 C 123.457031 58.417969 123.09375 56.691406 123.09375 54.332031 L 123.09375 51.515625 C 123.09375 49.089844 123.457031 47.335938 124.210938 46.214844 C 124.96875 45.09375 126.242188 44.546875 128.027344 44.546875 C 129.269531 44.546875 130.238281 44.792969 130.90625 45.246094 C 131.570312 45.699219 132.027344 46.425781 132.296875 47.363281 C 132.570312 48.335938 132.691406 49.667969 132.691406 51.363281 L 132.691406 54.117188 L 126.605469 54.117188 Z M 127.058594 47.394531 C 126.878906 47.636719 126.757812 48 126.695312 48.515625 C 126.636719 49.03125 126.605469 49.816406 126.605469 50.878906 L 126.605469 52.027344 L 129.269531 52.027344 L 129.269531 50.878906 C 129.269531 49.847656 129.238281 49.0625 129.179688 48.515625 C 129.117188 47.972656 128.96875 47.609375 128.785156 47.394531 C 128.605469 47.183594 128.300781 47.0625 127.9375 47.0625 C 127.511719 47.03125 127.242188 47.152344 127.058594 47.394531 Z M 127.058594 47.394531" style="stroke:none;fill-rule:nonzero;fill:rgb(15.686275%,15.686275%,15.686275%);fill-opacity:1;"/>
<path d="M 61.855469 53.875 L 57.738281 38.945312 L 61.339844 38.945312 L 62.796875 45.699219 C 63.160156 47.363281 63.429688 48.789062 63.613281 49.96875 L 63.703125 49.96875 C 63.824219 49.121094 64.097656 47.730469 64.523438 45.730469 L 66.035156 38.945312 L 69.640625 38.945312 L 65.460938 53.875 L 65.460938 61.023438 L 61.886719 61.023438 L 61.886719 53.875 Z M 61.855469 53.875" style="stroke:none;fill-rule:nonzero;fill:rgb(15.686275%,15.686275%,15.686275%);fill-opacity:1;"/>
<path d="M 90.476562 44.914062 L 90.476562 61.054688 L 87.628906 61.054688 L 87.324219 59.085938 L 87.234375 59.085938 C 86.476562 60.570312 85.296875 61.328125 83.753906 61.328125 C 82.691406 61.328125 81.90625 60.964844 81.390625 60.265625 C 80.875 59.570312 80.632812 58.480469 80.632812 56.964844 L 80.632812 44.914062 L 84.265625 44.914062 L 84.265625 56.753906 C 84.265625 57.480469 84.359375 57.996094 84.507812 58.296875 C 84.660156 58.601562 84.933594 58.753906 85.296875 58.753906 C 85.601562 58.753906 85.902344 58.660156 86.207031 58.449219 C 86.507812 58.269531 86.71875 58.027344 86.839844 57.722656 L 86.839844 44.914062 Z M 90.476562 44.914062" style="stroke:none;fill-rule:nonzero;fill:rgb(15.686275%,15.686275%,15.686275%);fill-opacity:1;"/>
<path d="M 109.101562 44.914062 L 109.101562 61.054688 L 106.253906 61.054688 L 105.949219 59.085938 L 105.859375 59.085938 C 105.101562 60.570312 103.921875 61.328125 102.378906 61.328125 C 101.316406 61.328125 100.53125 60.964844 100.015625 60.265625 C 99.5 59.570312 99.257812 58.480469 99.257812 56.964844 L 99.257812 44.914062 L 102.890625 44.914062 L 102.890625 56.753906 C 102.890625 57.480469 102.984375 57.996094 103.132812 58.296875 C 103.285156 58.601562 103.558594 58.753906 103.921875 58.753906 C 104.226562 58.753906 104.527344 58.660156 104.832031 58.449219 C 105.132812 58.269531 105.34375 58.027344 105.464844 57.722656 L 105.464844 44.914062 Z M 109.101562 44.914062" style="stroke:none;fill-rule:nonzero;fill:rgb(15.686275%,15.686275%,15.686275%);fill-opacity:1;"/>
<path d="M 100.347656 41.882812 L 96.746094 41.882812 L 96.746094 61.023438 L 93.199219 61.023438 L 93.199219 41.882812 L 89.597656 41.882812 L 89.597656 38.945312 L 100.347656 38.945312 Z M 100.347656 41.882812" style="stroke:none;fill-rule:nonzero;fill:rgb(15.686275%,15.686275%,15.686275%);fill-opacity:1;"/>
<path d="M 121.125 47.488281 C 120.910156 46.457031 120.546875 45.730469 120.0625 45.277344 C 119.578125 44.820312 118.882812 44.578125 118.035156 44.578125 C 117.367188 44.578125 116.730469 44.761719 116.15625 45.15625 C 115.582031 45.519531 115.128906 46.03125 114.824219 46.636719 L 114.792969 46.636719 L 114.792969 38.128906 L 111.28125 38.128906 L 111.28125 61.023438 L 114.277344 61.023438 L 114.644531 59.507812 L 114.734375 59.507812 C 115.007812 60.054688 115.429688 60.476562 116.003906 60.8125 C 116.582031 61.113281 117.1875 61.296875 117.882812 61.296875 C 119.125 61.296875 120.003906 60.722656 120.578125 59.601562 C 121.152344 58.480469 121.457031 56.691406 121.457031 54.300781 L 121.457031 51.757812 C 121.425781 49.910156 121.335938 48.484375 121.125 47.488281 Z M 117.792969 54.058594 C 117.792969 55.238281 117.730469 56.148438 117.640625 56.8125 C 117.550781 57.480469 117.367188 57.964844 117.15625 58.238281 C 116.914062 58.511719 116.609375 58.660156 116.246094 58.660156 C 115.945312 58.660156 115.671875 58.601562 115.429688 58.449219 C 115.1875 58.296875 114.976562 58.085938 114.824219 57.8125 L 114.824219 48.667969 C 114.945312 48.242188 115.15625 47.878906 115.460938 47.578125 C 115.761719 47.304688 116.097656 47.152344 116.429688 47.152344 C 116.792969 47.152344 117.09375 47.304688 117.277344 47.578125 C 117.488281 47.878906 117.609375 48.363281 117.703125 49.03125 C 117.792969 49.726562 117.824219 50.695312 117.824219 51.9375 L 117.824219 54.058594 Z M 117.792969 54.058594" style="stroke:none;fill-rule:nonzero;fill:rgb(15.686275%,15.686275%,15.686275%);fill-opacity:1;"/>
</g>
</svg>